# xmcd
#
# Track frame offsets:
#	150
#	26210
#	46783
#	70779
#	95244
#	113793
#	138095
#	158080
#	177896
#	196570
#	218676
#	239994
#	262269
#
# Disc length: 3768 seconds
#
# Revision: 1
# Processed by: cddbd v1.5.1PL2 Copyright (c) Steve Scherf et al.
# Submitted via: audiograbber 1.83.01
#
DISCID=b90eb60d
DTITLE=Marcelo Nascimento - Vitoria Garantida
DYEAR=2005
DGENRE=Gospel
TTITLE0=Marcelo Nascimento - Levanta E Anda
TTITLE1=Marcelo Nascimento - A Alegria Do Senhor
TTITLE2=Marcelo Nascimento - Rio De Aguas Vivas
TTITLE3=Marcelo Nascimento - Amor Maior
TTITLE4=Marcelo Nascimento - Quero Teu Amor
TTITLE5=Marcelo Nascimento - Anseio Teu Amor
TTITLE6=Marcelo Nascimento - Vitoria Garantida
TTITLE7=Marcelo Nascimento - O Amor De Deus
TTITLE8=Marcelo Nascimento - Tua Obra E Salvar
TTITLE9=Marcelo Nascimento - Eu Sou Forte
TTITLE10=Marcelo Nascimento - Minha Oracao
TTITLE11=Marcelo Nascimento - Siga Em Frente
TTITLE12=Marcelo Nascimento - Vou Te Amar Pra Sempre
EXTD=
EXTT0=
EXTT1=
EXTT2=
EXTT3=
EXTT4=
EXTT5=
EXTT6=
EXTT7=
EXTT8=
EXTT9=
EXTT10=
EXTT11=
EXTT12=
PLAYORDER=
